<svg width="481" height="480" viewBox="0 0 481 480" fill="none" xmlns="http://www.w3.org/2000/svg">
<path d="M464.012 448H448.012V416H464.012C469.564 416 474.7 413.12 477.628 408.4C480.556 403.68 480.812 397.792 478.332 392.832L453.484 343.152C446.876 329.952 430.78 320 416.012 320V288H432.012C437.564 288 442.7 285.12 445.628 280.4C448.556 275.68 448.812 269.792 446.332 264.832L421.484 215.152C414.876 201.952 398.78 192 384.012 192V160H400.012C405.564 160 410.716 157.12 413.628 152.4C416.556 147.68 416.812 141.792 414.332 136.832L362.012 32.256C351.324 10.864 331.804 0 304.012 0C295.164 0 288.012 7.152 288.012 16V448H192.012V16C192.012 7.152 184.86 0 176.012 0C148.22 0 128.7 10.864 118.012 32.256L65.692 136.848C63.212 141.808 63.468 147.696 66.396 152.416C69.308 157.12 74.46 160 80.012 160H96.012V192C81.244 192 65.148 201.952 58.54 215.152L33.692 264.832C31.212 269.792 31.468 275.68 34.396 280.4C37.324 285.12 42.46 288 48.012 288H64.012V320C49.244 320 33.148 329.952 26.54 343.152L1.69197 392.832C-0.788029 397.792 -0.532029 403.68 2.39597 408.4C5.32397 413.12 10.46 416 16.012 416H32.012V448H16.012C7.16397 448 0.0119702 455.152 0.0119702 464C0.0119702 472.848 7.16397 480 16.012 480H464.012C472.86 480 480.012 472.848 480.012 464C480.012 455.152 472.86 448 464.012 448ZM384.012 320H320.012V288H384.012V320ZM352.012 160V192H320.012V160H352.012ZM320.012 416H416.012V448H320.012V416ZM128.012 160H160.012V192H128.012V160ZM96.012 288H160.012V320H96.012V288ZM64.012 416H160.012V448H64.012V416Z" fill="#FF661F"/>
</svg>
