<svg width="170" height="170" viewBox="0 0 170 170" fill="none" xmlns="http://www.w3.org/2000/svg">
<path d="M53.1563 111.827C67.024 106.678 58.723 109.761 63.0924 108.14C63.0924 106.979 63.0924 100.029 63.0924 98.8687C49.9969 91.0525 44.373 78.2571 44.373 63.145C37.8986 68.5858 33.6287 76.403 33.6287 84.8421C33.6287 97.0149 41.5802 107.89 53.1563 111.827Z" fill="white"/>
<path d="M17.5904 137.088C13.6686 140.093 10.5348 144.043 8.54014 148.575L0.14063 167.68C-0.341415 168.776 0.474924 170 1.68864 170H47.6593C34.1668 162.219 23.5756 150.345 17.5904 137.088Z" fill="white"/>
<path d="M169.859 167.68L161.464 148.582C159.469 144.047 156.335 140.093 152.406 137.091C145.66 151.81 134.153 163.54 122.341 170H168.311C169.525 170 170.342 168.776 169.859 167.68Z" fill="white"/>
<path d="M143.44 132.363C140.43 131.249 135.105 129.363 124.413 125.348C118 139.099 103.174 150.056 85 150.056C67.5581 150.056 52.4376 139.88 45.5662 125.314C26.529 132.383 27.1625 132.149 26.5593 132.369C26.728 132.702 30.6299 142.471 39.6464 151.348C70.2422 182.324 124.933 173.772 143.44 132.363Z" fill="white"/>
<path d="M73.235 103.468V111.594C73.235 115.516 69.6343 116.38 68.458 116.819C68.4574 116.819 55.0903 121.777 55.0903 121.777C67.4204 146.383 102.789 145.946 114.9 121.794C109.504 119.794 101.126 116.686 100.109 116.309C98.1279 115.631 96.7047 113.777 96.7047 111.594V103.484C88.8179 105.808 80.8036 105.687 73.235 103.468Z" fill="white"/>
<path d="M115.485 62.8423C100.526 60.2401 100.869 49.0368 94.9667 45.205C93.077 43.9738 90.8827 43.3247 88.6141 43.3247H81.3858C76.7678 43.3247 72.6024 46.0268 70.7802 50.2132C67.5496 57.6568 60.2696 62.2077 54.5151 62.8389V65.1818C54.5151 81.7622 68.1571 95.1951 85 95.1951C101.769 95.1951 115.484 81.8269 115.484 65.1818V62.8423H115.485Z" fill="white"/>
<path d="M37.0891 34.9177L43.9932 38.8414C42.6773 42.7402 41.8856 46.9405 41.7186 51.3865C41.6822 52.3571 42.482 53.1613 43.4687 53.1669C51.5015 53.2131 53.8115 53.4903 57.2101 51.2882C59.0999 50.057 60.5706 48.3264 61.4565 46.2834C64.8844 38.4197 72.7044 33.3415 81.3862 33.3415C88.9644 33.3415 94.1862 32.72 100.559 36.8758C104.098 39.1751 106.864 42.4265 108.541 46.2768C110.36 50.4631 114.518 53.1619 119.143 53.1619H126.525C127.515 53.1619 128.318 52.3557 128.282 51.3815C128.116 46.9299 127.328 42.7303 126.019 38.8348L132.911 34.9177C135.335 33.5401 136.167 30.485 134.767 28.099C133.368 25.7096 130.264 24.8945 127.84 26.2721L121.711 29.7559C119.269 25.8866 116.239 22.4862 112.77 19.6376L115.953 14.2095C117.352 11.8234 116.521 8.76869 114.097 7.39073C111.669 6.00978 108.569 6.82826 107.169 9.21761L104.26 14.1793C99.8517 12.0313 95.0565 10.6168 90.0715 10.0411V5.13387C90.0715 2.44701 87.9753 0.134362 85.2487 0.00586265C82.3365 -0.131269 79.929 2.15515 79.929 4.99175V10.0427C74.9463 10.6211 70.1545 12.0413 65.7493 14.1945L62.8314 9.21761C61.4318 6.82826 58.3314 6.00978 55.904 7.39073C53.48 8.76836 52.6484 11.8234 54.048 14.2095L57.2361 19.6469C57.3778 19.5364 57.5235 19.4285 57.6669 19.3189C54.0261 22.2368 50.8522 25.7525 48.3127 29.7688L42.1605 26.2718C39.7365 24.8941 36.633 25.7093 35.2331 28.0987C33.8335 30.485 34.665 33.5401 37.0891 34.9177Z" fill="white"/>
</svg>
