<svg width="512" height="512" viewBox="0 0 512 512" fill="none" xmlns="http://www.w3.org/2000/svg">
<g clip-path="url(#clip0_483_266)">
<path d="M419.351 440.958L419.353 440.956C429.772 425.326 447.212 415.995 465.992 415.995C484.666 415.995 503.154 425.24 513.631 440.956C519.763 450.154 517.281 462.557 508.085 468.69L508.073 468.698L508.06 468.707C498.846 474.771 486.477 472.344 480.348 463.141L480.348 463.141C477.495 458.856 472.217 456.427 466.491 456.427C460.766 456.427 455.487 458.856 452.634 463.141L452.632 463.143C441.983 479.117 424.313 485.995 405.993 485.995C387.673 485.995 370.003 479.117 359.354 463.143L359.352 463.141C356.453 458.787 351.374 456.427 345.995 456.427C340.617 456.427 335.537 458.787 332.638 463.141L332.636 463.143C321.987 479.117 304.317 485.995 285.997 485.995C267.677 485.995 250.007 479.117 239.358 463.143L239.356 463.141C236.457 458.787 231.378 456.427 225.999 456.427C220.621 456.427 215.541 458.787 212.642 463.141L212.64 463.143C201.991 479.117 184.32 485.995 166.001 485.995C147.683 485.995 130.011 479.117 119.362 463.143L119.36 463.141C116.461 458.787 111.382 456.427 106.003 456.427C100.625 456.427 95.5449 458.787 92.646 463.141L92.6443 463.143C81.9955 479.117 64.3247 485.995 46.0051 485.995C27.7928 485.995 9.06148 479.187 -1.63417 463.143L-1.63445 463.143C-7.76355 453.947 -5.28508 441.545 3.90739 435.412C13.0969 429.258 25.5356 431.763 31.649 440.958H419.351ZM419.351 440.958C416.452 445.312 411.373 447.672 405.994 447.672C400.616 447.672 395.536 445.312 392.637 440.958L392.635 440.956M419.351 440.958L392.635 440.956M392.635 440.956C382.216 425.326 364.776 415.995 345.996 415.995C327.216 415.995 309.776 425.326 299.357 440.956L299.355 440.958M392.635 440.956L299.355 440.958M299.355 440.958C296.456 445.312 291.377 447.672 285.998 447.672C280.62 447.672 275.54 445.312 272.641 440.958L272.639 440.956M299.355 440.958L272.639 440.956M272.639 440.956C262.22 425.326 244.781 415.995 226 415.995C207.219 415.995 189.78 425.326 179.361 440.956L179.359 440.958M272.639 440.956L179.359 440.958M179.359 440.958C176.46 445.312 171.381 447.672 166.002 447.672C160.624 447.672 155.544 445.312 152.645 440.958L152.643 440.956M179.359 440.958L152.643 440.956M152.643 440.956C142.224 425.326 124.785 415.995 106.004 415.995C87.2235 415.995 69.7843 425.326 59.3648 440.956L59.3632 440.958M152.643 440.956L59.3632 440.958M59.3632 440.958C56.5103 445.243 51.2316 447.672 45.5061 447.672M59.3632 440.958L45.5061 447.672M45.5061 447.672C39.781 447.672 34.5027 445.243 31.6497 440.959L45.5061 447.672Z" fill="white" stroke="black" stroke-width="10"/>
<path d="M96.0039 285.998V285.997C96.0025 274.946 87.0569 265.998 76.0039 265.998H15.0049C3.95246 265.998 -4.99512 274.946 -4.99512 285.998C-4.99512 297.05 3.95246 305.998 15.0049 305.998H76.0039C87.0563 305.998 96.0039 297.05 96.0039 285.998Z" fill="white" stroke="black" stroke-width="10"/>
<path d="M496.995 265.998H435.996C424.944 265.998 415.996 274.946 415.996 285.998C415.996 297.05 424.944 305.998 435.996 305.998H496.995C508.048 305.998 516.995 297.05 516.995 285.998C516.995 274.946 508.048 265.998 496.995 265.998Z" fill="white" stroke="black" stroke-width="10"/>
<path d="M439.841 102.158L439.841 102.157C432.029 94.3458 419.37 94.3458 411.559 102.157L369.138 144.578C361.326 152.39 361.326 165.049 369.138 172.861C376.949 180.672 389.607 180.672 397.419 172.861L397.42 172.861L439.841 130.44L439.841 130.439C447.651 122.628 447.651 109.969 439.841 102.158Z" fill="white" stroke="black" stroke-width="10"/>
<path d="M256 26.003C244.948 26.003 236 34.9506 236 46.003V106.002C236 117.054 244.948 126.002 256 126.002C267.052 126.002 276 117.054 276 106.002V46.002C276 34.9504 267.052 26.003 256 26.003Z" fill="white" stroke="black" stroke-width="10"/>
<path d="M142.863 144.578L100.442 102.157C92.6299 94.3458 79.9711 94.3458 72.1595 102.157C64.3479 109.969 64.3479 122.628 72.1595 130.44L114.58 172.861C122.392 180.672 135.051 180.672 142.863 172.861C150.674 165.049 150.674 152.39 142.863 144.578Z" fill="white" stroke="black" stroke-width="10"/>
<path d="M419.352 350.959L419.354 350.957C429.773 335.327 447.212 325.996 465.993 325.996C484.667 325.996 503.155 335.241 513.632 350.957C519.764 360.154 517.282 372.559 508.086 378.691L508.073 378.699L508.061 378.708C498.847 384.772 486.477 382.345 480.349 373.142L480.349 373.142C477.496 368.857 472.218 366.428 466.492 366.428C460.766 366.428 455.488 368.857 452.635 373.142L452.633 373.145C441.984 389.118 424.314 395.996 405.994 395.996C387.674 395.996 370.004 389.118 359.355 373.145L359.353 373.142C356.454 368.788 351.375 366.428 345.996 366.428C340.617 366.428 335.538 368.788 332.639 373.142L332.637 373.145C321.988 389.118 304.318 395.996 285.998 395.996C267.678 395.996 250.008 389.118 239.359 373.145L239.357 373.142C236.458 368.788 231.379 366.428 226 366.428C220.621 366.428 215.542 368.788 212.643 373.142L212.641 373.145C201.992 389.118 184.322 395.996 166.002 395.996C147.682 395.996 130.012 389.118 119.363 373.145L119.361 373.142C116.462 368.788 111.383 366.428 106.004 366.428C100.625 366.428 95.5459 368.788 92.6469 373.142L92.6453 373.145C81.9964 389.118 64.3256 395.996 46.006 395.996C27.7938 395.996 9.06241 389.188 -1.63324 373.145C-7.76411 363.948 -5.28367 351.546 3.90832 345.413C13.0978 339.259 25.5365 341.764 31.6499 350.959H419.352ZM419.352 350.959C416.453 355.313 411.374 357.673 405.995 357.673C400.616 357.673 395.537 355.313 392.638 350.959L392.636 350.957M419.352 350.959L392.636 350.957M392.636 350.957C382.217 335.327 364.778 325.996 345.997 325.996C327.216 325.996 309.777 335.327 299.358 350.957L299.356 350.959M392.636 350.957L299.356 350.959M299.356 350.959C296.457 355.313 291.378 357.673 285.999 357.673C280.62 357.673 275.541 355.313 272.642 350.959L272.64 350.957M299.356 350.959L272.64 350.957M272.64 350.957C262.221 335.327 244.781 325.996 226.001 325.996C207.221 325.996 189.781 335.327 179.362 350.957L179.36 350.959M272.64 350.957L179.36 350.959M179.36 350.959C176.461 355.313 171.382 357.673 166.003 357.673C160.624 357.673 155.545 355.313 152.646 350.959L152.644 350.957M179.36 350.959L152.644 350.957M152.644 350.957C142.225 335.327 124.786 325.996 106.005 325.996C87.2244 325.996 69.7852 335.327 59.3658 350.957L59.3641 350.959M152.644 350.957L59.3641 350.959M59.3641 350.959C56.5112 355.244 51.2325 357.673 45.507 357.673M59.3641 350.959L45.507 357.673M45.507 357.673C39.7819 357.673 34.5036 355.244 31.6506 350.96L45.507 357.673Z" fill="white" stroke="black" stroke-width="10"/>
<path d="M117.834 303.395L118.282 306.923L121.762 307.656C137.359 310.946 151.544 319.039 162.298 330.899L166 334.982L169.704 330.9C184.012 315.136 204.334 305.998 226.001 305.998C247.669 305.998 268.005 315.138 282.296 330.899L285.998 334.982L289.702 330.9C304.01 315.136 324.332 305.998 345.999 305.998C360.103 305.998 373.526 310.225 385.332 317.408L391.397 321.097L392.828 314.144C394.707 305.017 395.998 295.617 395.998 285.998C395.997 208.795 333.203 146 256 146C178.796 146 116.003 208.795 116.003 285.997C116.003 290.614 116.677 295.264 117.288 299.478C117.485 300.834 117.675 302.145 117.834 303.395Z" fill="white" stroke="black" stroke-width="10"/>
</g>
<defs>
<clipPath id="clip0_483_266">
<rect width="511.997" height="511.997" fill="white"/>
</clipPath>
</defs>
</svg>
