<svg width="120" height="120" viewBox="0 0 120 120" fill="none" xmlns="http://www.w3.org/2000/svg">
<path d="M23.6719 0H16.6406C12.7573 0 9.60938 3.74819 9.60938 8.37209H30.7031C30.7031 3.74819 27.5552 0 23.6719 0Z" fill="#FF661F"/>
<path d="M107.109 16.7442H83.6278L81.3443 8.58698C79.9062 3.4507 75.885 0 71.3384 0H48.6616C44.115 0 40.0938 3.4507 38.6559 8.58698L36.3722 16.7442H12.8906C5.78273 16.7442 0 23.6297 0 32.093V104.651C0 113.115 5.78273 120 12.8906 120H107.109C114.217 120 120 113.115 120 104.651V32.093C120 23.6297 114.217 16.7442 107.109 16.7442ZM11.9531 32.093C11.9531 29.7812 13.5272 27.907 15.4688 27.907H22.5C24.4416 27.907 26.0156 29.7812 26.0156 32.093C26.0156 34.4048 24.4416 36.2791 22.5 36.2791H15.4688C13.5272 36.2791 11.9531 34.4048 11.9531 32.093ZM60 106.047C41.261 106.047 26.0156 87.8939 26.0156 65.5814C26.0156 43.2689 41.261 25.1163 60 25.1163C78.739 25.1163 93.9844 43.2689 93.9844 65.5814C93.9844 87.8939 78.739 106.047 60 106.047ZM102.188 36.2791C100.246 36.2791 98.6719 34.4048 98.6719 32.093C98.6719 29.7812 100.246 27.907 102.188 27.907C104.129 27.907 105.703 29.7812 105.703 32.093C105.703 34.4048 104.129 36.2791 102.188 36.2791Z" fill="#FF661F"/>
<path d="M60 33.4884C45.138 33.4884 33.0469 47.8853 33.0469 65.5814C33.0469 83.2775 45.138 97.6744 60 97.6744C74.862 97.6744 86.9531 83.2775 86.9531 65.5814C86.9531 47.8853 74.862 33.4884 60 33.4884ZM60 87.907C49.6613 87.907 41.25 77.8917 41.25 65.5814C41.25 53.2711 49.6613 43.2558 60 43.2558C70.3387 43.2558 78.75 53.2711 78.75 65.5814C78.75 77.8917 70.3387 87.907 60 87.907Z" fill="#FF661F"/>
<path d="M60 79.5349C66.4721 79.5349 71.7188 73.2877 71.7188 65.5814C71.7188 57.8751 66.4721 51.6279 60 51.6279C53.5279 51.6279 48.2812 57.8751 48.2812 65.5814C48.2812 73.2877 53.5279 79.5349 60 79.5349Z" fill="#FF661F"/>
</svg>
