<svg width="512" height="512" viewBox="0 0 512 512" fill="none" xmlns="http://www.w3.org/2000/svg">
<g clip-path="url(#clip0_496_100)">
<path d="M101 41H71C54.431 41 41 54.431 41 71H131C131 54.431 117.569 41 101 41Z" fill="white"/>
<path d="M457 101H356.812L347.069 71.77C340.933 53.365 323.776 41 304.377 41H207.623C188.224 41 171.067 53.365 164.932 71.77L155.188 101H55C24.673 101 0 125.673 0 156V416C0 446.327 24.673 471 55 471H457C487.327 471 512 446.327 512 416V156C512 125.673 487.327 101 457 101ZM51 156C51 147.716 57.716 141 66 141H96C104.284 141 111 147.716 111 156C111 164.284 104.284 171 96 171H66C57.716 171 51 164.284 51 156ZM256 421C176.047 421 111 355.953 111 276C111 196.047 176.047 131 256 131C335.953 131 401 196.047 401 276C401 355.953 335.953 421 256 421ZM436 171C427.716 171 421 164.284 421 156C421 147.716 427.716 141 436 141C444.284 141 451 147.716 451 156C451 164.284 444.284 171 436 171Z" fill="white"/>
<path d="M256 161C192.589 161 141 212.589 141 276C141 339.411 192.589 391 256 391C319.411 391 371 339.411 371 276C371 212.589 319.411 161 256 161ZM256 356C211.888 356 176 320.112 176 276C176 231.888 211.888 196 256 196C300.112 196 336 231.888 336 276C336 320.112 300.112 356 256 356Z" fill="white"/>
<path d="M256 326C283.614 326 306 303.614 306 276C306 248.386 283.614 226 256 226C228.386 226 206 248.386 206 276C206 303.614 228.386 326 256 326Z" fill="white"/>
</g>
<defs>
<clipPath id="clip0_496_100">
<rect width="512" height="512" fill="white"/>
</clipPath>
</defs>
</svg>
