<svg width="421" height="421" viewBox="0 0 421 421" fill="none" xmlns="http://www.w3.org/2000/svg">
<g clip-path="url(#clip0_483_107)">
<path d="M412.672 145.539C406.528 138.371 397.312 133.763 388.096 133.763H362.496L263.68 11.907C257.536 4.22705 246.784 2.69105 238.592 8.32305C230.912 14.467 229.376 25.219 235.008 33.411C235.008 33.923 235.52 33.923 235.52 34.435L316.928 133.763H97.792L178.688 34.435C185.344 27.267 184.832 16.003 177.664 9.34705C170.496 2.69105 159.232 3.20305 152.576 10.371C152.064 10.883 151.552 11.395 151.04 11.907L52.224 134.275H31.744C14.336 134.275 0 148.611 0 166.019C0 168.067 0 170.115 0.512 172.163L41.472 378.499C45.568 400.003 64.512 415.363 86.528 415.363H333.312C355.328 415.363 374.272 400.003 378.368 378.499L419.328 172.163C421.376 162.947 418.816 153.219 412.672 145.539ZM156.672 312.963C156.672 322.691 148.48 330.883 138.752 330.883C129.024 330.883 120.832 322.691 120.832 312.963V240.259C120.832 230.531 129.024 222.339 138.752 222.339C148.48 222.339 156.672 230.531 156.672 240.259V312.963ZM227.84 312.963C227.84 322.691 219.648 330.883 209.92 330.883C200.192 330.883 192 322.691 192 312.963V240.259C192 230.531 200.192 222.339 209.92 222.339C219.648 222.339 227.84 230.531 227.84 240.259V312.963ZM298.496 312.963C298.496 322.691 290.304 330.883 280.576 330.883C270.848 330.883 262.656 322.691 262.656 312.963V240.259C262.656 230.531 270.848 222.339 280.576 222.339C290.304 222.339 298.496 230.531 298.496 240.259V312.963Z" fill="#FF661F"/>
</g>
<defs>
<clipPath id="clip0_483_107">
<rect width="420.022" height="420.022" fill="white"/>
</clipPath>
</defs>
</svg>
