<svg width="421" height="412" viewBox="0 0 421 412" fill="none" xmlns="http://www.w3.org/2000/svg">
<path d="M412.672 141.539C406.528 134.371 397.312 129.763 388.096 129.763H362.496L263.68 7.90705C257.536 0.227046 246.784 -1.30895 238.592 4.32305C230.912 10.467 229.376 21.219 235.008 29.411C235.008 29.923 235.52 29.923 235.52 30.435L316.928 129.763H97.792L178.688 30.435C185.344 23.267 184.832 12.003 177.664 5.34705C170.496 -1.30895 159.232 -0.796953 152.576 6.37105C152.064 6.88305 151.552 7.39505 151.04 7.90705L52.224 130.275H31.744C14.336 130.275 0 144.611 0 162.019C0 164.067 0 166.115 0.512 168.163L41.472 374.499C45.568 396.003 64.512 411.363 86.528 411.363H333.312C355.328 411.363 374.272 396.003 378.368 374.499L419.328 168.163C421.376 158.947 418.816 149.219 412.672 141.539ZM156.672 308.963C156.672 318.691 148.48 326.883 138.752 326.883C129.024 326.883 120.832 318.691 120.832 308.963V236.259C120.832 226.531 129.024 218.339 138.752 218.339C148.48 218.339 156.672 226.531 156.672 236.259V308.963ZM227.84 308.963C227.84 318.691 219.648 326.883 209.92 326.883C200.192 326.883 192 318.691 192 308.963V236.259C192 226.531 200.192 218.339 209.92 218.339C219.648 218.339 227.84 226.531 227.84 236.259V308.963ZM298.496 308.963C298.496 318.691 290.304 326.883 280.576 326.883C270.848 326.883 262.656 318.691 262.656 308.963V236.259C262.656 226.531 270.848 218.339 280.576 218.339C290.304 218.339 298.496 226.531 298.496 236.259V308.963Z" fill="white"/>
</svg>
