<svg width="170" height="170" viewBox="0 0 170 170" fill="none" xmlns="http://www.w3.org/2000/svg">
<path d="M49.5833 45.145H42.5C42.5 51.628 48.4396 57.1031 56.6667 59.1655V70.0412H113.333V59.1655C121.56 57.1031 127.5 51.628 127.5 45.145H120.417C114.606 45.145 106.561 41.7754 106.25 40.1804L63.75 40.1658C63.4383 41.7754 55.3936 45.145 49.5833 45.145Z" fill="#FF661F"/>
<path d="M113.333 79.9995H55.9927C52.6135 82.1366 41.2726 84.9787 35.4161 84.9787H28.3328C28.3328 91.4617 34.2724 96.9369 42.4994 98.9993V110.207H127.499V98.9993C135.726 96.9369 141.666 91.4617 141.666 84.9787H134.583C128.129 84.9787 114.903 81.5165 113.333 79.9995Z" fill="#FF661F"/>
<path d="M127.5 120.166H41.8262C38.447 122.303 27.1061 125.145 21.2496 125.145H14.1663C14.1663 133.382 23.6985 140.082 35.4163 140.082H134.583C146.301 140.082 155.833 133.382 155.833 125.145H148.75C142.296 125.145 129.07 121.683 127.5 120.166Z" fill="#FF661F"/>
<path d="M63.75 30.2073H106.25V23.1664L92.0833 13.2079V0H77.9167V13.2079L63.75 23.1664V30.2073Z" fill="#FF661F"/>
<path d="M28.3333 159.999H0V169.958H56.6667C56.6667 168.851 56.6667 148.963 56.6667 150.041H28.3333V159.999Z" fill="#FF661F"/>
<path d="M70.8335 150.041C70.8335 151.147 70.8335 171.035 70.8335 169.958H99.1668C99.1668 168.851 99.1668 148.963 99.1668 150.041H70.8335Z" fill="#FF661F"/>
<path d="M141.667 150.041H113.333C113.333 151.147 113.333 171.035 113.333 169.958H170V159.999H141.667V150.041Z" fill="#FF661F"/>
</svg>
