<svg width="318" height="461" viewBox="0 0 318 461" fill="none" xmlns="http://www.w3.org/2000/svg">
<path d="M151.581 116.309C174.658 116.309 193.365 97.6013 193.365 74.5246C193.365 51.4479 174.658 32.7406 151.581 32.7406C128.505 32.7406 109.797 51.4479 109.797 74.5246C109.797 97.6013 128.505 116.309 151.581 116.309Z" fill="white"/>
<path d="M312.366 334.935C250.348 257.256 254.849 262.542 252.01 260.22L223.362 143.73L305.573 32.1186C312.177 23.1536 310.262 10.5326 301.297 3.92961C292.334 -2.67339 279.713 -0.760392 273.108 8.20561L190.009 121.021C188.829 121.257 139.319 133.293 136.411 134.419L34.5426 30.7186C26.7416 22.7756 13.9756 22.6616 6.03256 30.4646C-1.91044 38.2676 -2.02444 51.0326 5.77856 58.9756L121.524 176.803L136.712 238.56L153.539 306.981L144.205 340.023L62.7516 325.606C49.6056 323.283 37.0406 332.055 34.7126 345.213C32.3836 358.37 41.1616 370.923 54.3186 373.252C165.444 392.921 158.511 391.856 161.557 391.856C172.202 391.856 181.835 384.805 184.819 374.236C207.912 292.482 206.472 298.141 206.812 295.058L216.772 292.609C217.782 294.083 213.639 288.829 262.035 349.447L201.238 420.059C192.521 430.185 193.662 445.46 203.786 454.178C213.907 462.892 229.184 461.76 237.905 451.63L311.792 365.815C319.385 356.999 319.625 344.027 312.366 334.935Z" fill="white"/>
</svg>
