<svg width="512" height="512" viewBox="0 0 512 512" fill="none" xmlns="http://www.w3.org/2000/svg">
<path d="M248 228V163.312L240 155.312L232 163.312V224H216V163.312L208 155.312L200 163.312V224H184V163.312L176 155.312L168 163.312V228C168.013 232.966 169.175 237.861 171.396 242.302C173.617 246.743 176.835 250.61 180.8 253.6C186.747 258.085 191.575 263.885 194.906 270.547C198.237 277.209 199.98 284.552 200 292V480C200 482.122 200.843 484.157 202.343 485.657C203.843 487.157 205.878 488 208 488C210.122 488 212.157 487.157 213.657 485.657C215.157 484.157 216 482.122 216 480V292C216.02 284.552 217.763 277.209 221.094 270.547C224.425 263.885 229.253 258.085 235.2 253.6C239.165 250.61 242.383 246.743 244.604 242.302C246.825 237.861 247.987 232.966 248 228Z" fill="#FF661F"/>
<path d="M232 406.176V438.488C247.949 440.296 264.051 440.296 280 438.488V406.176C272.05 407.324 264.032 407.934 256 408C247.968 407.934 239.95 407.324 232 406.176Z" fill="#FF661F"/>
<path d="M344 208C343.983 194.538 339.125 181.531 330.313 171.354C321.5 161.177 309.321 154.509 296 152.568V480C296 482.122 296.843 484.157 298.343 485.657C299.843 487.157 301.878 488 304 488C306.122 488 308.157 487.157 309.657 485.657C311.157 484.157 312 482.122 312 480V296C312.01 286.782 315.199 277.849 321.028 270.709C326.857 263.568 334.971 258.655 344 256.8V208Z" fill="#FF661F"/>
<path d="M360 208V264C360 266.122 359.157 268.157 357.657 269.657C356.157 271.157 354.122 272 352 272C345.635 272 339.53 274.529 335.03 279.029C330.529 283.53 328 289.635 328 296V374.936C360.15 358.736 385.896 332.167 401.077 299.524C416.259 266.881 419.988 230.073 411.662 195.048C403.337 160.024 383.442 128.831 355.196 106.512C326.949 84.1924 292.001 72.0515 256 72.0515C220 72.0515 185.051 84.1924 156.805 106.512C128.558 128.831 108.664 160.024 100.338 195.048C92.012 230.073 95.7413 266.881 110.923 299.524C126.104 332.167 151.851 358.736 184 374.936V292C183.987 287.034 182.825 282.139 180.604 277.698C178.384 273.257 175.165 269.39 171.2 266.4C165.253 261.915 160.425 256.115 157.094 249.453C153.764 242.791 152.02 235.448 152 228V160C152.001 157.878 152.844 155.844 154.344 154.344L170.344 138.344C171.844 136.844 173.879 136.002 176 136.002C178.121 136.002 180.156 136.844 181.656 138.344L192 148.688L202.344 138.344C203.844 136.844 205.879 136.002 208 136.002C210.121 136.002 212.156 136.844 213.656 138.344L224 148.688L234.344 138.344C235.844 136.844 237.879 136.002 240 136.002C242.121 136.002 244.156 136.844 245.656 138.344L261.656 154.344C263.157 155.844 264 157.878 264 160V228C263.98 235.448 262.237 242.791 258.906 249.453C255.575 256.115 250.747 261.915 244.8 266.4C240.835 269.39 237.617 273.257 235.396 277.698C233.175 282.139 232.013 287.034 232 292V390.024C247.912 392.4 264.088 392.4 280 390.024V144C280 141.878 280.843 139.843 282.343 138.343C283.844 136.843 285.878 136 288 136C307.089 136.021 325.39 143.614 338.888 157.112C352.386 170.61 359.979 188.911 360 208Z" fill="#FF661F"/>
<path d="M256 24C207.181 23.9855 159.914 41.1476 122.477 72.4802C85.0399 103.813 59.8201 147.318 51.2351 195.376C42.6501 243.434 51.2472 292.98 75.5206 335.337C99.7939 377.693 138.196 410.159 184 427.048V392.52C147.241 376.04 117.248 347.449 99.0288 311.52C80.8096 275.591 75.4671 234.5 83.8935 195.107C92.3198 155.714 114.005 120.404 145.328 95.0721C176.651 69.7406 215.716 55.9211 256 55.9211C296.284 55.9211 335.349 69.7406 366.672 95.0721C397.995 120.404 419.68 155.714 428.107 195.107C436.533 234.5 431.191 275.591 412.972 311.52C394.752 347.449 364.759 376.04 328 392.52V427.048C373.804 410.159 412.206 377.693 436.48 335.337C460.753 292.98 469.35 243.434 460.765 195.376C452.18 147.318 426.96 103.813 389.523 72.4802C352.086 41.1476 304.819 23.9855 256 24Z" fill="#FF661F"/>
</svg>
