<svg width="512" height="512" viewBox="0 0 512 512" fill="none" xmlns="http://www.w3.org/2000/svg">
<path d="M15.1 331C34.61 377.56 71.88 415.77 120 435.83V466C120 474.28 126.72 481 135 481H377C385.28 481 392 474.28 392 466V435.83C440.12 415.77 477.39 377.56 496.9 331H15.1ZM497 241H15C6.72 241 0 247.72 0 256C0 271.38 1.82 286.46 5.3 301H506.7C510.18 286.46 512 271.38 512 256C512 247.72 505.28 241 497 241Z" fill="white"/>
<path d="M155.394 176.607C149.536 170.749 149.536 161.252 155.394 155.394C166.112 144.675 166.113 127.327 155.394 116.607C133.003 94.216 133.003 57.785 155.394 35.394C161.251 29.536 170.749 29.536 176.607 35.394C182.465 41.252 182.465 50.749 176.607 56.607C165.889 67.326 165.888 84.674 176.607 95.394C198.998 117.785 198.998 154.216 176.607 176.607C170.75 182.464 161.251 182.465 155.394 176.607Z" fill="white"/>
<path d="M245.394 176.607C239.536 170.749 239.536 161.252 245.394 155.394C256.112 144.675 256.113 127.327 245.394 116.607C223.003 94.216 223.003 57.785 245.394 35.394C251.251 29.536 260.749 29.536 266.607 35.394C272.465 41.252 272.465 50.749 266.607 56.607C255.889 67.326 255.888 84.674 266.607 95.394C288.998 117.785 288.998 154.216 266.607 176.607C260.75 182.464 251.251 182.465 245.394 176.607Z" fill="white"/>
<path d="M335.394 176.607C329.536 170.749 329.536 161.252 335.394 155.394C346.111 144.676 346.113 127.327 335.394 116.607C313.003 94.216 313.003 57.785 335.394 35.394C341.251 29.536 350.749 29.536 356.607 35.394C362.465 41.252 362.465 50.749 356.607 56.607C345.89 67.325 345.888 84.674 356.607 95.394C378.998 117.785 378.998 154.216 356.607 176.607C350.75 182.464 341.251 182.465 335.394 176.607Z" fill="white"/>
</svg>
