<svg width="512" height="512" viewBox="0 0 512 512" fill="none" xmlns="http://www.w3.org/2000/svg">
<g clip-path="url(#clip0_483_266)">
<path d="M509.471 443.729C499.979 429.491 483.101 420.995 465.992 420.995C448.883 420.995 433.005 429.491 423.513 443.729C415.574 455.653 396.414 455.653 388.475 443.729C378.983 429.491 363.104 420.995 345.996 420.995C328.887 420.995 313.009 429.491 303.517 443.729C295.578 455.653 276.418 455.653 268.479 443.729C258.987 429.491 243.109 420.995 226 420.995C208.891 420.995 193.013 429.491 183.521 443.729C175.582 455.653 156.422 455.653 148.483 443.729C138.991 429.491 123.113 420.995 106.004 420.995C88.8951 420.995 73.0171 429.491 63.5251 443.729C55.5861 455.653 35.4261 455.653 27.4871 443.729C22.9021 436.83 13.5711 434.955 6.68608 439.569C-0.212917 444.169 -2.07292 453.47 2.52608 460.37C12.0181 474.608 28.8961 480.995 46.0051 480.995C63.1141 480.995 78.9921 474.608 88.4841 460.37C96.4231 448.446 115.583 448.446 123.522 460.37C133.014 474.608 148.893 480.995 166.001 480.995C183.109 480.995 198.988 474.608 208.48 460.37C216.419 448.446 235.579 448.446 243.518 460.37C253.01 474.608 268.888 480.995 285.997 480.995C303.106 480.995 318.984 474.608 328.476 460.37C336.415 448.446 355.575 448.446 363.514 460.37C373.006 474.608 388.884 480.995 405.993 480.995C423.102 480.995 438.98 474.608 448.472 460.37C456.411 448.446 476.571 448.446 484.51 460.37C489.095 467.255 498.367 469.1 505.311 464.53C512.21 459.929 514.071 450.629 509.471 443.729Z" fill="white"/>
<path d="M76.0039 270.998H15.0049C6.71388 270.998 0.00488281 277.707 0.00488281 285.998C0.00488281 294.289 6.71388 300.998 15.0049 300.998H76.0039C84.2949 300.998 91.0039 294.289 91.0039 285.998C91.0029 277.707 84.2949 270.998 76.0039 270.998Z" fill="white"/>
<path d="M496.995 270.998H435.996C427.705 270.998 420.996 277.707 420.996 285.998C420.996 294.289 427.705 300.998 435.996 300.998H496.995C505.286 300.998 511.995 294.289 511.995 285.998C511.995 277.707 505.286 270.998 496.995 270.998Z" fill="white"/>
<path d="M436.305 105.693C430.446 99.834 420.953 99.834 415.094 105.693L372.673 148.114C366.814 153.973 366.814 163.466 372.673 169.325C378.532 175.184 388.024 175.184 393.884 169.325L436.305 126.904C442.163 121.045 442.163 111.552 436.305 105.693Z" fill="white"/>
<path d="M256 31.003C247.709 31.003 241 37.712 241 46.003V106.002C241 114.293 247.709 121.002 256 121.002C264.291 121.002 271 114.293 271 106.002V46.002C271 37.712 264.291 31.003 256 31.003Z" fill="white"/>
<path d="M139.327 148.114L96.906 105.693C91.047 99.834 81.554 99.834 75.695 105.693C69.836 111.552 69.836 121.045 75.695 126.904L118.116 169.325C123.975 175.184 133.468 175.184 139.327 169.325C145.186 163.466 145.186 153.973 139.327 148.114Z" fill="white"/>
<path d="M509.472 353.73C499.98 339.492 483.102 330.996 465.993 330.996C448.884 330.996 433.006 339.492 423.514 353.73C415.575 365.654 396.415 365.654 388.476 353.73C378.984 339.492 363.106 330.996 345.997 330.996C328.888 330.996 313.01 339.492 303.518 353.73C295.579 365.654 276.419 365.654 268.48 353.73C258.988 339.492 243.109 330.996 226.001 330.996C208.893 330.996 193.014 339.492 183.522 353.73C175.583 365.654 156.423 365.654 148.484 353.73C138.992 339.492 123.114 330.996 106.005 330.996C88.896 330.996 73.018 339.492 63.526 353.73C55.587 365.654 35.427 365.654 27.488 353.73C22.903 346.831 13.572 344.956 6.68701 349.57C-0.211989 354.17 -2.07299 363.471 2.52701 370.371C12.019 384.609 28.897 390.996 46.006 390.996C63.115 390.996 78.993 384.609 88.485 370.371C96.424 358.447 115.584 358.447 123.523 370.371C133.015 384.609 148.893 390.996 166.002 390.996C183.111 390.996 198.989 384.609 208.481 370.371C216.42 358.447 235.58 358.447 243.519 370.371C253.011 384.609 268.889 390.996 285.998 390.996C303.107 390.996 318.985 384.609 328.477 370.371C336.416 358.447 355.576 358.447 363.515 370.371C373.007 384.609 388.885 390.996 405.994 390.996C423.103 390.996 438.981 384.609 448.473 370.371C456.412 358.447 476.572 358.447 484.511 370.371C489.096 377.256 498.368 379.101 505.312 374.531C512.211 369.931 514.072 360.63 509.472 353.73Z" fill="white"/>
<path d="M256 151C181.558 151 121.003 211.556 121.003 285.997C121.003 291.677 122.085 297.188 122.794 302.764C139.414 306.269 154.536 314.895 166.002 327.54C181.251 310.738 202.915 300.998 226.001 300.998C249.087 300.998 270.766 310.739 286 327.54C301.249 310.738 322.913 300.998 345.999 300.998C361.12 300.998 375.432 305.532 387.931 313.136C389.766 304.222 390.998 295.175 390.998 285.998C390.997 211.556 330.442 151 256 151Z" fill="white"/>
</g>
<defs>
<clipPath id="clip0_483_266">
<rect width="511.997" height="511.997" fill="white"/>
</clipPath>
</defs>
</svg>
