<?xml version="1.0" encoding="UTF-8"?>
<svg xmlns="http://www.w3.org/2000/svg" viewBox="0 0 64 64" width="512" height="512"><g id="Layer_19" data-name="Layer 19"><path d="M31,28.5V20.414l-1-1-1,1V28H27V20.414l-1-1-1,1V28H23V20.414l-1-1-1,1V28.5a4.021,4.021,0,0,0,1.6,3.2A6.032,6.032,0,0,1,25,36.5V60a1,1,0,0,0,2,0V36.5a6.032,6.032,0,0,1,2.4-4.8A4.021,4.021,0,0,0,31,28.5Z"/><path d="M29,50.772v4.039a26.633,26.633,0,0,0,6,0V50.772A22.278,22.278,0,0,1,32,51,22.278,22.278,0,0,1,29,50.772Z"/><path d="M43,26a7.011,7.011,0,0,0-6-6.929V60a1,1,0,0,0,2,0V37a5.008,5.008,0,0,1,4-4.9Z"/><path d="M45,26v7a1,1,0,0,1-1,1,3,3,0,0,0-3,3v9.867a20,20,0,1,0-18,0V36.5a4.021,4.021,0,0,0-1.6-3.2A6.032,6.032,0,0,1,19,28.5V20a1,1,0,0,1,.293-.707l2-2a1,1,0,0,1,1.414,0L24,18.586l1.293-1.293a1,1,0,0,1,1.414,0L28,18.586l1.293-1.293a1,1,0,0,1,1.414,0l2,2A1,1,0,0,1,33,20v8.5a6.032,6.032,0,0,1-2.4,4.8A4.021,4.021,0,0,0,29,36.5V48.753a20.313,20.313,0,0,0,6,0V18a1,1,0,0,1,1-1A9.01,9.01,0,0,1,45,26Z"/><path d="M32,3a25.993,25.993,0,0,0-9,50.381V49.065a22,22,0,1,1,18,0v4.316A25.993,25.993,0,0,0,32,3Z"/></g></svg>
