<svg id="Layer_1" enable-background="new 0 0 480 480" height="512" viewBox="0 0 480 480" width="512" xmlns="http://www.w3.org/2000/svg"><g><path d="m472 372c-4.42 0-8 3.58-8 8v9h-24v-9c0-4.42-3.58-8-8-8s-8 3.58-8 8v9h-29v-12c0-4.42-3.58-8-8-8h-84c-4.42 0-8 3.58-8 8v12h-75v-52c0-2.21-1.79-4-4-4h-154c-2.21 0-4 1.79-4 4v52h-42v-9c0-4.42-3.58-8-8-8s-8 3.58-8 8v45c0 13.23 10.77 24 24 24h432c13.23 0 24-10.77 24-24v-45c0-4.42-3.58-8-8-8zm-312 17c-4.418 0-8-3.582-8-8v-3.62c0-6.68-4.88-12.56-11.52-13.3-7.83-.87-14.48 5.26-14.48 12.92v4c0 4.418-3.582 8-8 8s-8-3.582-8-8v-4c0-16.28 13.49-29.47 29.88-28.99 15.77.47 28.12 13.83 28.12 29.61v3.38c0 4.418-3.582 8-8 8z"/><path d="m197.705 249.184c-1.247-.272 6.361-.184-115.705-.184-.573 0-1.145.062-1.705.184-29.568 6.448-48.595 31.307-46.27 60.452.332 4.158 3.804 7.364 7.975 7.364h194c4.171 0 7.643-3.206 7.975-7.364 2.325-29.146-16.703-54.004-46.27-60.452z"/><path d="m62 213h154c4.171 0 7.643-3.206 7.975-7.364 2.325-29.146-16.702-54.005-46.27-60.453-.56-.122-1.131-.184-1.705-.184-78.848 0-74.412-.098-75.705.184-29.568 6.448-48.595 31.307-46.27 60.452.332 4.159 3.804 7.365 7.975 7.365z"/><path d="m82 116h114c4.172 0 7.643-3.206 7.975-7.364 2.657-33.309-22.734-60.636-56.975-60.636v-9c0-4.418-3.582-8-8-8s-8 3.582-8 8v9c-34.412 0-59.617 27.501-56.975 60.636.332 4.158 3.804 7.364 7.975 7.364z"/><path d="m414.97 345.64c-.33 4.15-3.8 7.36-7.97 7.36h-124c-4.17 0-7.64-3.21-7.97-7.36-2.708-33.83 23.46-60.64 56.51-60.64h5.46v-9c0-4.42 3.58-8 8-8s8 3.58 8 8v9h5.46c32.995 0 59.225 26.729 56.51 60.64z"/></g></svg>