<svg height="512" viewBox="0 0 32 32" width="512" xmlns="http://www.w3.org/2000/svg"><g id="pura_bali"><path d="m30 29h-1v-2h1c.347 0 .668-.18.851-.475s.199-.663.044-.973l-1.553-3.105c-.413-.825-1.419-1.447-2.342-1.447v-2h1c.347 0 .668-.18.851-.475s.199-.663.044-.973l-1.553-3.105c-.413-.825-1.419-1.447-2.342-1.447v-2h1c.347 0 .669-.18.851-.475.183-.295.199-.663.044-.973l-3.27-6.536c-.668-1.337-1.888-2.016-3.625-2.016-.553 0-1 .447-1 1v27h-6v-27c0-.553-.447-1-1-1-1.737 0-2.957.679-3.625 2.016l-3.27 6.537c-.155.31-.139.678.044.973.182.294.504.474.851.474h1v2c-.923 0-1.929.622-2.342 1.447l-1.553 3.105c-.155.31-.139.678.044.973s.504.475.851.475h1v2c-.923 0-1.929.622-2.342 1.447l-1.553 3.105c-.155.31-.139.678.044.973s.504.475.851.475h1v2h-1c-.553 0-1 .447-1 1s.447 1 1 1h28c.553 0 1-.447 1-1s-.447-1-1-1zm-5-8h-4v-2h4zm-2-10v2h-2v-2zm-2 16h6v2h-6zm-12-16h2v2h-2zm-2 8h4v2h-4zm-2 8h6v2h-6z"/></g></svg>