<?xml version="1.0" encoding="iso-8859-1"?>
<!-- Generator: Adobe Illustrator 19.0.0, SVG Export Plug-In . SVG Version: 6.00 Build 0)  -->
<svg version="1.1" id="Capa_1" xmlns="http://www.w3.org/2000/svg" xmlns:xlink="http://www.w3.org/1999/xlink" x="0px" y="0px"
	 viewBox="0 0 511.997 511.997" style="enable-background:new 0 0 511.997 511.997;" xml:space="preserve">
<g>
	<g>
		<path d="M509.471,443.729c-9.492-14.238-26.37-22.734-43.479-22.734c-17.109,0-32.987,8.496-42.479,22.734
			c-7.939,11.924-27.099,11.924-35.038,0c-9.492-14.238-25.371-22.734-42.479-22.734c-17.109,0-32.987,8.496-42.479,22.734
			c-7.939,11.924-27.099,11.924-35.038,0c-9.492-14.238-25.37-22.734-42.479-22.734c-17.109,0-32.987,8.496-42.479,22.734
			c-7.939,11.924-27.099,11.924-35.038,0c-9.492-14.238-25.37-22.734-42.479-22.734c-17.109,0-32.987,8.496-42.479,22.734
			c-7.939,11.924-28.099,11.924-36.038,0c-4.585-6.899-13.916-8.774-20.801-4.16c-6.899,4.6-8.759,13.901-4.16,20.801
			c9.492,14.238,26.37,20.625,43.479,20.625c17.109,0,32.987-6.387,42.479-20.625c7.939-11.924,27.099-11.924,35.038,0
			c9.492,14.238,25.371,20.625,42.479,20.625s32.987-6.387,42.479-20.625c7.939-11.924,27.099-11.924,35.038,0
			c9.492,14.238,25.37,20.625,42.479,20.625c17.109,0,32.987-6.387,42.479-20.625c7.939-11.924,27.099-11.924,35.038,0
			c9.492,14.238,25.37,20.625,42.479,20.625c17.109,0,32.987-6.387,42.479-20.625c7.939-11.924,28.099-11.924,36.038,0
			c4.585,6.885,13.857,8.73,20.801,4.16C512.21,459.929,514.071,450.629,509.471,443.729z"/>
	</g>
</g>
<g>
	<g>
		<path d="M76.004,270.998H15.005c-8.291,0-15,6.709-15,15c0,8.291,6.709,15,15,15h60.999c8.291,0,15-6.709,15-15
			C91.003,277.707,84.295,270.998,76.004,270.998z"/>
	</g>
</g>
<g>
	<g>
		<path d="M496.995,270.998h-60.999c-8.291,0-15,6.709-15,15c0,8.291,6.709,15,15,15h60.999c8.291,0,15-6.709,15-15
			C511.995,277.707,505.286,270.998,496.995,270.998z"/>
	</g>
</g>
<g>
	<g>
		<path d="M436.305,105.693c-5.859-5.859-15.352-5.859-21.211,0l-42.421,42.421c-5.859,5.859-5.859,15.352,0,21.211
			c5.859,5.859,15.351,5.859,21.211,0l42.421-42.421C442.163,121.045,442.163,111.552,436.305,105.693z"/>
	</g>
</g>
<g>
	<g>
		<path d="M256,31.003c-8.291,0-15,6.709-15,15v59.999c0,8.291,6.709,15,15,15s15-6.709,15-15V46.002
			C271,37.712,264.291,31.003,256,31.003z"/>
	</g>
</g>
<g>
	<g>
		<path d="M139.327,148.114l-42.421-42.421c-5.859-5.859-15.352-5.859-21.211,0s-5.859,15.352,0,21.211l42.421,42.421
			c5.859,5.859,15.352,5.859,21.211,0C145.186,163.466,145.186,153.973,139.327,148.114z"/>
	</g>
</g>
<g>
	<g>
		<path d="M509.472,353.73c-9.492-14.238-26.37-22.734-43.479-22.734c-17.109,0-32.987,8.496-42.479,22.734
			c-7.939,11.924-27.099,11.924-35.038,0c-9.492-14.238-25.37-22.734-42.479-22.734c-17.109,0-32.987,8.496-42.479,22.734
			c-7.939,11.924-27.099,11.924-35.038,0c-9.492-14.238-25.371-22.734-42.479-22.734s-32.987,8.496-42.479,22.734
			c-7.939,11.924-27.099,11.924-35.038,0c-9.492-14.238-25.37-22.734-42.479-22.734s-32.987,8.496-42.479,22.734
			c-7.939,11.924-28.099,11.924-36.038,0c-4.585-6.899-13.916-8.774-20.801-4.16c-6.899,4.6-8.76,13.901-4.16,20.801
			c9.492,14.238,26.37,20.625,43.479,20.625c17.109,0,32.987-6.387,42.479-20.625c7.939-11.924,27.099-11.924,35.038,0
			c9.492,14.238,25.37,20.625,42.479,20.625c17.109,0,32.987-6.387,42.479-20.625c7.939-11.924,27.099-11.924,35.038,0
			c9.492,14.238,25.37,20.625,42.479,20.625c17.109,0,32.987-6.387,42.479-20.625c7.939-11.924,27.099-11.924,35.038,0
			c9.492,14.238,25.37,20.625,42.479,20.625c17.109,0,32.987-6.387,42.479-20.625c7.939-11.924,28.099-11.924,36.038,0
			c4.585,6.885,13.857,8.73,20.801,4.16C512.211,369.931,514.072,360.63,509.472,353.73z"/>
	</g>
</g>
<g>
	<g>
		<path d="M256,151c-74.442,0-134.997,60.556-134.997,134.997c0,5.68,1.082,11.191,1.791,16.767
			c16.62,3.505,31.742,12.131,43.208,24.776c15.249-16.802,36.913-26.542,59.999-26.542c23.086,0,44.765,9.741,59.999,26.542
			c15.249-16.802,36.913-26.542,59.999-26.542c15.121,0,29.433,4.534,41.932,12.138c1.835-8.914,3.067-17.961,3.067-27.138
			C390.997,211.556,330.442,151,256,151z"/>
	</g>
</g>
<g>
</g>
<g>
</g>
<g>
</g>
<g>
</g>
<g>
</g>
<g>
</g>
<g>
</g>
<g>
</g>
<g>
</g>
<g>
</g>
<g>
</g>
<g>
</g>
<g>
</g>
<g>
</g>
<g>
</g>
</svg>
