<svg id="Capa_1" enable-background="new 0 0 512.127 512.127" height="512" viewBox="0 0 512.127 512.127" width="512" xmlns="http://www.w3.org/2000/svg"><g><path d="m181.064 136h-15c0 19.53 12.578 36.024 30 42.237v32.763h120v-32.763c17.422-6.213 30-22.707 30-42.237h-15c-12.305 0-29.341-10.151-30-14.956l-90-.044c-.66 4.849-17.696 15-30 15z"/><path d="m316.064 241h-121.427c-7.156 6.438-31.172 15-43.574 15h-15c0 19.53 12.578 36.024 30 42.237v33.763h180v-33.763c17.422-6.213 30-22.707 30-42.237h-15c-13.666 0-41.674-10.43-44.999-15z"/><path d="m346.064 362h-181.427c-7.156 6.438-31.172 15-43.574 15h-15c0 24.814 20.186 45 45 45h210c24.814 0 45-20.186 45-45h-15c-13.666 0-41.674-10.43-44.999-15z"/><path d="m211.064 91h90v-21.211l-30-30v-39.789h-30v39.789l-30 30z"/><path d="m136.064 482h-60v30h120c0-3.334 0-63.246 0-60h-60z"/><path d="m226.064 452c0 3.333 0 63.246 0 60h60c0-3.334 0-63.246 0-60z"/><path d="m376.064 452h-60c0 3.333 0 63.246 0 60h120v-30h-60z"/></g></svg>