<?xml version="1.0" encoding="iso-8859-1"?>
<!-- Generator: Adobe Illustrator 19.0.0, SVG Export Plug-In . SVG Version: 6.00 Build 0)  -->
<svg version="1.1" id="Capa_1" xmlns="http://www.w3.org/2000/svg" xmlns:xlink="http://www.w3.org/1999/xlink" x="0px" y="0px"
	 viewBox="0 0 512.001 512.001" style="enable-background:new 0 0 512.001 512.001;" xml:space="preserve">
<g>
	<g>
		<path d="M361.005,30.767v-15.76c0-8.291-6.709-15-15-15s-15,6.709-15,15v15.76c-83.967,7.614-149.996,79.32-149.996,165.235
			c0,5.537,3.047,10.62,7.925,13.228c4.878,2.608,10.781,2.314,15.396-0.747c22.294-14.854,51.063-14.854,73.357,0
			c4.468,2.959,10.195,3.325,15.029,0.938l23.715-11.865c4.669-2.333,9.567-4.063,14.575-5.22V362h29.999V192.333
			c5.012,1.157,9.91,2.888,14.575,5.222l23.715,11.865c4.834,2.417,11.562,2.065,16.029-0.938c22.294-14.854,51.063-14.854,73.357,0
			c4.645,3.097,10.58,3.33,15.396,0.747c4.878-2.607,7.925-7.69,7.925-13.228C512.001,110.085,444.972,38.379,361.005,30.767z"/>
	</g>
</g>
<g>
	<g>
		<path d="M460.42,450.29c12.367-3.706,21.58-14.742,21.58-28.294c0-16.538-13.462-29.999-29.999-29.999H135.01l-81.018-108
			c-10.064-13.453-28.917-15.793-41.967-6.006c-13.277,9.973-15.979,28.734-6.006,42.011l89.999,119.997
			c3.887,5.193,9.586,8.214,15.705,10.032l-20.128,40.255c-3.706,7.412-0.703,16.421,6.709,20.126
			c7.487,3.718,16.441,0.642,20.126-6.709l25.853-51.708H427.73l25.853,51.708c3.686,7.351,12.64,10.427,20.126,6.709
			c7.412-3.706,10.415-12.715,6.709-20.126L460.42,450.29z"/>
	</g>
</g>
<g>
	<g>
		<path d="M256.008,301.999H105.012l-0.007,0.002l22.501,29.997h128.502c8.276,0,15,6.724,15,15v15h29.999v-15
			C301.007,322.185,280.821,301.999,256.008,301.999z"/>
	</g>
</g>
<g>
</g>
<g>
</g>
<g>
</g>
<g>
</g>
<g>
</g>
<g>
</g>
<g>
</g>
<g>
</g>
<g>
</g>
<g>
</g>
<g>
</g>
<g>
</g>
<g>
</g>
<g>
</g>
<g>
</g>
</svg>
